<svg width="138" height="37" viewBox="0 0 138 37" fill="none" xmlns="http://www.w3.org/2000/svg">
<path d="M7.11914 18.1936V17.8139C7.11914 16.502 7.38633 15.3886 7.9121 14.4651C8.43786 13.5416 9.14462 12.8253 10.0151 12.3247C10.8857 11.8241 11.8424 11.5652 12.8853 11.5652C13.9282 11.5652 15.0228 11.7896 15.6693 12.247C16.3157 12.7045 16.7897 13.1878 17.0914 13.7056H17.4965V11.9191H20.0133V26.8848C20.0133 27.6443 19.7892 28.2484 19.3496 28.6972C18.9014 29.1547 18.2981 29.3791 17.5224 29.3791H10.9719V27.1092H16.7122C17.1948 27.1092 17.4448 26.8589 17.4448 26.3497V22.3968H17.0397C16.8587 22.6989 16.5915 23.0096 16.264 23.3289C15.9278 23.6482 15.4883 23.9072 14.9453 24.1057C14.4023 24.3042 13.7127 24.4077 12.8939 24.4077C12.0751 24.4077 10.8943 24.1575 10.0151 23.6655C9.136 23.1736 8.43786 22.4572 7.9121 21.5251C7.39495 20.593 7.13638 19.4796 7.13638 18.185L7.11914 18.1936ZM13.5834 22.1551C14.7039 22.1551 15.6348 21.8013 16.3674 21.0849C17.1 20.3686 17.462 19.3847 17.462 18.1246V17.9002C17.462 16.6056 17.1 15.613 16.376 14.9139C15.652 14.2148 14.7212 13.8696 13.5834 13.8696C12.4457 13.8696 11.558 14.2148 10.8253 14.9139C10.0927 15.613 9.73072 16.6056 9.73072 17.9002V18.1246C9.73072 19.3847 10.0927 20.3686 10.8253 21.0849C11.558 21.8013 12.4716 22.1551 13.5834 22.1551Z" fill="white"/>
<path d="M21.9355 24.3473V11.9277H24.4782V13.3863H24.8833C25.0815 12.8684 25.409 12.4801 25.8486 12.2384C26.2968 11.9967 26.8398 11.8759 27.4949 11.8759H28.9773V14.2148H27.3914C26.5554 14.2148 25.8658 14.4479 25.3315 14.9053C24.7971 15.3714 24.5299 16.0791 24.5299 17.0371V24.3387H21.9355V24.3473Z" fill="white"/>
<path d="M35.0196 24.6926C33.7612 24.6926 32.6666 24.425 31.7271 23.8985C30.7877 23.3721 30.055 22.6212 29.5293 21.6545C29.0035 20.6879 28.7363 19.5659 28.7363 18.2885V17.9865C28.7363 16.6919 28.9949 15.5612 29.512 14.5946C30.0292 13.6279 30.7532 12.8857 31.6841 12.3506C32.6149 11.8241 33.6923 11.5566 34.9162 11.5566C36.1401 11.5566 37.1485 11.8241 38.0449 12.3506C38.9413 12.8771 39.6395 13.6107 40.148 14.5514C40.6479 15.4922 40.9065 16.5883 40.9065 17.8484V18.8323H31.3738C31.4082 19.9198 31.7702 20.7915 32.4684 21.4388C33.1665 22.0861 34.0284 22.4054 35.0713 22.4054C36.1143 22.4054 36.7779 22.1896 37.2692 21.7495C37.7605 21.3093 38.1484 20.8087 38.4156 20.2391L40.5531 21.3438C40.3204 21.8099 39.9756 22.3105 39.536 22.8283C39.0878 23.3462 38.5104 23.7863 37.7864 24.1402C37.0624 24.4941 36.1401 24.6667 35.0196 24.6667V24.6926ZM31.3996 16.8645H38.269C38.2001 15.9237 37.8639 15.1901 37.2606 14.6636C36.6573 14.1372 35.8643 13.8696 34.899 13.8696C33.9336 13.8696 33.1321 14.1372 32.5201 14.6636C31.9081 15.1901 31.5375 15.9237 31.3996 16.8645Z" fill="white"/>
<path d="M47.8263 24.6926C46.5679 24.6926 45.4733 24.425 44.5338 23.8985C43.5943 23.3721 42.8617 22.6212 42.3359 21.6545C41.8102 20.6879 41.543 19.5659 41.543 18.2885V17.9865C41.543 16.6919 41.8015 15.5612 42.3187 14.5946C42.8358 13.6279 43.5598 12.8857 44.4907 12.3506C45.4216 11.8241 46.4989 11.5566 47.7228 11.5566C48.9468 11.5566 49.9552 11.8241 50.8516 12.3506C51.748 12.8771 52.4461 13.6107 52.9546 14.5514C53.4545 15.4922 53.7131 16.5883 53.7131 17.8484V18.8323H44.1804C44.2149 19.9198 44.5769 20.7915 45.275 21.4388C45.9732 22.0861 46.8351 22.4054 47.878 22.4054C48.9209 22.4054 49.5846 22.1896 50.0759 21.7495C50.5671 21.3093 50.955 20.8087 51.2222 20.2391L53.3597 21.3438C53.127 21.8099 52.7822 22.3105 52.3427 22.8283C51.8945 23.3462 51.317 23.7863 50.593 24.1402C49.869 24.4941 48.9468 24.6667 47.8263 24.6667V24.6926ZM44.1976 16.8645H51.067C50.9981 15.9237 50.6619 15.1901 50.0586 14.6636C49.4553 14.1372 48.6623 13.8696 47.697 13.8696C46.7317 13.8696 45.9301 14.1372 45.3181 14.6636C44.7062 15.1901 44.3355 15.9237 44.1976 16.8645Z" fill="white"/>
<path d="M54.9473 24.3473V11.9277H57.4899V13.7919H57.895C58.1277 13.2914 58.55 12.8167 59.1534 12.3851C59.7567 11.945 60.6531 11.7292 61.8425 11.7292C63.032 11.7292 63.6181 11.9363 64.3421 12.3592C65.0747 12.7821 65.6435 13.369 66.0659 14.1372C66.4882 14.9053 66.6951 15.8202 66.6951 16.899V24.356H64.1007V17.0975C64.1007 16.0273 63.8335 15.2333 63.2992 14.7154C62.7648 14.2062 62.0235 13.9473 61.084 13.9473C60.1446 13.9473 59.1534 14.3011 58.5069 15.0089C57.8605 15.7166 57.5416 16.735 57.5416 18.0814V24.356H54.9473V24.3473Z" fill="white"/>
<path d="M85.4415 24.6839C84.4158 24.6839 83.4677 24.4336 82.5972 23.9244C81.7267 23.4238 81.0285 22.6902 80.4941 21.7495C79.9684 20.8001 79.7012 19.6522 79.7012 18.3144V17.9347C79.7012 16.6056 79.9597 15.4663 80.4769 14.5083C80.994 13.5503 81.6922 12.8167 82.5627 12.3161C83.4332 11.8155 84.3899 11.5566 85.4329 11.5566C86.4758 11.5566 86.9153 11.6601 87.4583 11.8586C88.0013 12.0571 88.4495 12.3161 88.8029 12.6268C89.1563 12.9375 89.4235 13.2568 89.6045 13.5934H90.0096V6.68883H92.6039V24.3214H90.0613V22.5608H89.6562C89.3373 23.0959 88.8546 23.5878 88.2082 24.0194C87.5618 24.4595 86.6395 24.6753 85.4242 24.6753L85.4415 24.6839ZM86.1655 22.4227C87.286 22.4227 88.2168 22.0602 88.9494 21.3438C89.6821 20.6188 90.0441 19.5918 90.0441 18.2454V18.021C90.0441 16.6919 89.6821 15.6734 88.9581 14.9484C88.2341 14.2235 87.3032 13.861 86.1655 13.861C85.0278 13.861 84.14 14.2235 83.4074 14.9484C82.6748 15.6734 82.3128 16.6919 82.3128 18.021V18.2454C82.3128 19.5918 82.6748 20.6188 83.4074 21.3438C84.14 22.0688 85.0536 22.4227 86.1655 22.4227Z" fill="white"/>
<path d="M98.3953 24.6839C97.5076 24.6839 96.7146 24.5286 96.0165 24.2265C95.3183 23.9244 94.7667 23.4756 94.353 22.8887C93.9393 22.3018 93.7324 21.5855 93.7324 20.7483C93.7324 19.9111 93.9393 19.1861 94.353 18.6165C94.7667 18.0555 95.327 17.6326 96.0423 17.3478C96.7577 17.063 97.5679 16.9163 98.4729 16.9163H102.248V16.1136C102.248 15.3886 102.033 14.8104 101.593 14.3788C101.153 13.9387 100.49 13.7229 99.5848 13.7229C98.6798 13.7229 98.0161 13.93 97.5507 14.3529C97.0852 14.7758 96.775 15.3196 96.6198 15.9928L94.2065 15.216C94.4047 14.5428 94.7322 13.9387 95.1718 13.3863C95.62 12.8426 96.2061 12.4024 96.9473 12.0658C97.6886 11.7292 98.5763 11.5652 99.6106 11.5652C101.222 11.5652 102.489 11.9795 103.412 12.7994C104.334 13.6193 104.799 14.7931 104.799 16.3035V21.4129C104.799 21.9135 105.032 22.1724 105.506 22.1724H106.566V24.3387H104.627C104.041 24.3387 103.558 24.1833 103.196 23.8813C102.826 23.5792 102.645 23.1649 102.645 22.6471V22.5694H102.265C102.127 22.8197 101.929 23.1131 101.662 23.4497C101.395 23.7863 100.998 24.0798 100.481 24.3214C99.964 24.5631 99.2745 24.6839 98.4212 24.6839H98.3953ZM98.7746 22.5435C99.8175 22.5435 100.654 22.2414 101.291 21.6459C101.929 21.0504 102.248 20.2305 102.248 19.1861V18.9359H98.6281C97.9385 18.9359 97.3869 19.0826 96.9646 19.376C96.5422 19.6695 96.3354 20.101 96.3354 20.6706C96.3354 21.2403 96.5509 21.6977 96.9904 22.0343C97.43 22.3709 98.0247 22.5349 98.7746 22.5349V22.5435Z" fill="white"/>
<path d="M112.152 24.6839C110.574 24.6839 109.264 24.3301 108.23 23.6223C107.187 22.9146 106.549 21.853 106.316 20.4203L108.73 19.8421C108.868 20.5325 109.092 21.0763 109.411 21.4819C109.73 21.8876 110.126 22.1724 110.609 22.3364C111.083 22.5003 111.6 22.5867 112.152 22.5867C112.97 22.5867 113.608 22.4313 114.048 22.112C114.496 21.7926 114.711 21.3784 114.711 20.8778C114.711 20.3772 114.505 20.0061 114.082 19.773C113.66 19.54 113.039 19.3415 112.22 19.1948L111.367 19.0394C110.531 18.8841 109.764 18.6683 109.075 18.3835C108.385 18.0987 107.842 17.7017 107.437 17.2011C107.032 16.7005 106.834 16.0532 106.834 15.2592C106.834 14.0854 107.273 13.1705 108.144 12.5232C109.014 11.8759 110.169 11.5566 111.617 11.5566C113.065 11.5566 114.151 11.8673 115.048 12.4973C115.944 13.1274 116.53 13.9818 116.797 15.052L114.384 15.7338C114.229 14.9743 113.918 14.4479 113.427 14.1372C112.944 13.8265 112.333 13.6711 111.617 13.6711C110.902 13.6711 110.359 13.8006 109.954 14.0595C109.549 14.3184 109.35 14.6895 109.35 15.1556C109.35 15.6216 109.549 16.0273 109.945 16.2603C110.342 16.4934 110.867 16.6746 111.54 16.7868L112.419 16.9421C113.306 17.0975 114.117 17.3046 114.858 17.5722C115.599 17.8397 116.177 18.2281 116.608 18.7287C117.039 19.2293 117.245 19.9025 117.245 20.7397C117.245 21.9825 116.78 22.9491 115.858 23.6396C114.935 24.3301 113.694 24.6753 112.134 24.6753L112.152 24.6839Z" fill="white"/>
<path d="M118.391 24.3301V6.69746H120.985V13.6711H121.39C121.554 13.3518 121.795 13.0411 122.105 12.739C122.416 12.4369 122.829 12.1866 123.338 11.9967C123.847 11.8069 124.502 11.7033 125.286 11.7033C126.07 11.7033 127.061 11.9104 127.785 12.3333C128.518 12.7562 129.087 13.3431 129.509 14.1113C129.932 14.8794 130.138 15.7943 130.138 16.8731V24.3301H127.544V17.0716C127.544 16.0014 127.277 15.2074 126.743 14.6895C126.208 14.1803 125.467 13.9214 124.527 13.9214C123.588 13.9214 122.597 14.2753 121.95 14.983C121.304 15.6907 120.985 16.7091 120.985 18.0555V24.3301H118.391Z" fill="white"/>
<path d="M67.8153 18.651L72.5731 17.9433C72.8661 17.9002 73.1075 17.6758 73.1592 17.3737L74.09 12.5664C74.1848 12.0744 73.7625 11.6429 73.2712 11.7206L68.3411 12.5146C68.0394 12.5664 67.8067 12.7994 67.755 13.1015L66.9879 17.8311C66.9103 18.3144 67.3241 18.7287 67.8067 18.6597L67.8153 18.651Z" fill="#6FE451"/>
<path d="M69.7721 19.5745L69.5911 20.7052C69.5135 21.1971 69.9445 21.62 70.4358 21.5423L75.3056 20.7224C75.6072 20.6706 75.8399 20.4376 75.8917 20.1355L76.7536 15.2505C76.8398 14.7499 76.4088 14.3184 75.9089 14.4047L74.8315 14.5946C74.5298 14.6464 74.2971 14.888 74.2454 15.1901L73.7972 17.8915C73.7455 18.1936 73.5128 18.4266 73.2111 18.4871L70.3496 18.9876C70.0479 19.0394 69.8152 19.2811 69.7635 19.5832L69.7721 19.5745Z" fill="#6FE451"/>
<path d="M73.0894 21.6373L75.9337 21.2403C76.2181 21.1971 76.4508 20.9813 76.5025 20.6965L77.011 17.857C77.0628 17.5722 77.2955 17.3478 77.5799 17.3133L78.6918 17.1579C79.1486 17.0975 79.5364 17.5032 79.4502 17.952L78.5366 22.9405C78.4849 23.2253 78.2608 23.4411 77.985 23.4843L73.098 24.261C72.6412 24.3301 72.2447 23.9331 72.3223 23.4756L72.5291 22.1983C72.5722 21.9048 72.8049 21.6804 73.098 21.6459L73.0894 21.6373Z" fill="#6FE451"/>
</svg>
