<svg width="62" height="55" viewBox="0 0 62 55" fill="none" xmlns="http://www.w3.org/2000/svg">
<g filter="url(#filter0_f_1_385)">
<rect x="11" y="11" width="40" height="33" fill="url(#paint0_linear_1_385)"/>
</g>
<path d="M40.0937 12.5967H20.7745C17.6962 12.5967 15.2007 15.0922 15.2007 18.1705V36.9404C15.2007 40.0188 17.6962 42.5143 20.7745 42.5143H40.0937C43.172 42.5143 45.6675 40.0188 45.6675 36.9404V18.1705C45.6675 15.0922 43.172 12.5967 40.0937 12.5967Z" fill="#6FE451"/>
<path d="M21.8211 28.7618L29.4062 27.5075C29.8812 27.4258 30.2523 27.0622 30.3414 26.5946L31.759 18.9055C31.9 18.1262 31.2246 17.436 30.4379 17.577L22.5855 18.9649C22.1031 19.0465 21.732 19.4325 21.6578 19.9149L20.5074 27.4704C20.3887 28.2348 21.0566 28.8954 21.8211 28.7692V28.7618Z" fill="black"/>
<path d="M24.953 30.171L24.6784 31.9819C24.5597 32.7687 25.2499 33.4366 26.0366 33.2882L33.7925 31.8484C34.2675 31.7593 34.6386 31.3808 34.7202 30.9058L36.0265 23.098C36.1601 22.3038 35.455 21.621 34.6683 21.7694L32.9538 22.1034C32.4714 22.1925 32.1077 22.5784 32.0261 23.0609L31.3507 27.373C31.2765 27.8554 30.9054 28.2413 30.4229 28.3304L25.8659 29.2062C25.3835 29.2952 25.0124 29.6886 24.9382 30.171H24.953Z" fill="black"/>
<path d="M30.2747 33.3699L34.8095 32.6574C35.2696 32.5832 35.6259 32.2269 35.7075 31.7742L36.4794 27.232C36.5536 26.7719 36.9173 26.4156 37.3774 26.3488L39.1438 26.0742C39.8712 25.9629 40.4946 26.6012 40.3684 27.3211L38.988 35.2922C38.9138 35.7375 38.5575 36.0937 38.1122 36.168L30.3192 37.5262C29.5919 37.6523 28.9536 37.0289 29.0649 36.3016L29.3767 34.268C29.4509 33.8004 29.8145 33.4367 30.2747 33.3699Z" fill="black"/>
<defs>
<filter id="filter0_f_1_385" x="0" y="0" width="62" height="55" filterUnits="userSpaceOnUse" color-interpolation-filters="sRGB">
<feFlood flood-opacity="0" result="BackgroundImageFix"/>
<feBlend mode="normal" in="SourceGraphic" in2="BackgroundImageFix" result="shape"/>
<feGaussianBlur stdDeviation="5.5" result="effect1_foregroundBlur_1_385"/>
</filter>
<linearGradient id="paint0_linear_1_385" x1="11" y1="27.6631" x2="50.9982" y2="27.1839" gradientUnits="userSpaceOnUse">
<stop stop-color="#399C17"/>
<stop offset="0.240593" stop-color="#399C17"/>
</linearGradient>
</defs>
</svg>
