<svg width="28" height="27" viewBox="0 0 28 27" fill="none" xmlns="http://www.w3.org/2000/svg">
<g clip-path="url(#clip0_98_11)">
<g filter="url(#filter0_d_98_11)">
<path d="M3.5 2.5V23.5H24.5" stroke="#FAFAFA" stroke-width="1.5" stroke-linecap="round" stroke-linejoin="round"/>
<path d="M10.4998 11.8333C11.7885 11.8333 12.8332 10.7887 12.8332 9.5C12.8332 8.21134 11.7885 7.16667 10.4998 7.16667C9.21117 7.16667 8.1665 8.21134 8.1665 9.5C8.1665 10.7887 9.21117 11.8333 10.4998 11.8333Z" stroke="#FAFAFA" stroke-width="1.5" stroke-linecap="round" stroke-linejoin="round"/>
<path d="M22.1668 9.50003C23.4555 9.50003 24.5002 8.45536 24.5002 7.1667C24.5002 5.87804 23.4555 4.83337 22.1668 4.83337C20.8782 4.83337 19.8335 5.87804 19.8335 7.1667C19.8335 8.45536 20.8782 9.50003 22.1668 9.50003Z" stroke="#FAFAFA" stroke-width="1.5" stroke-linecap="round" stroke-linejoin="round"/>
<path d="M16.3333 18.8333C17.622 18.8333 18.6667 17.7887 18.6667 16.5C18.6667 15.2113 17.622 14.1667 16.3333 14.1667C15.0447 14.1667 14 15.2113 14 16.5C14 17.7887 15.0447 18.8333 16.3333 18.8333Z" stroke="#FAFAFA" stroke-width="1.5" stroke-linecap="round" stroke-linejoin="round"/>
<path d="M11.8535 11.39L14.5835 14.75" stroke="#FAFAFA" stroke-width="1.5" stroke-linecap="round" stroke-linejoin="round"/>
<path d="M17.6025 14.5493L20.9124 9.19901" stroke="#FAFAFA" stroke-width="1.5" stroke-linecap="round" stroke-linejoin="round"/>
</g>
</g>
<defs>
<filter id="filter0_d_98_11" x="-33.7" y="-34.7" width="95.4002" height="95.4" filterUnits="userSpaceOnUse" color-interpolation-filters="sRGB">
<feFlood flood-opacity="0" result="BackgroundImageFix"/>
<feColorMatrix in="SourceAlpha" type="matrix" values="0 0 0 0 0 0 0 0 0 0 0 0 0 0 0 0 0 0 127 0" result="hardAlpha"/>
<feOffset/>
<feGaussianBlur stdDeviation="18.225"/>
<feComposite in2="hardAlpha" operator="out"/>
<feColorMatrix type="matrix" values="0 0 0 0 0 0 0 0 0 0 0 0 0 0 0 0 0 0 0.25 0"/>
<feBlend mode="normal" in2="BackgroundImageFix" result="effect1_dropShadow_98_11"/>
<feBlend mode="normal" in="SourceGraphic" in2="effect1_dropShadow_98_11" result="shape"/>
</filter>
<clipPath id="clip0_98_11">
<rect width="28" height="27" fill="white"/>
</clipPath>
</defs>
</svg>
